HIERARCHY
ROOT Hips
{
	OFFSET 0.000000 0.000000 0.000000
	CHANNELS 6 Xposition Yposition Zposition Zrotation Yrotation Xrotation 
	JOINT LHipJoint
	{
		OFFSET 0.000000 0.000000 0.000000
		CHANNELS 3 Zrotation Yrotation Xrotation
		JOINT LeftUpLeg
		{
			OFFSET 1.363060 -1.794630 0.839290
			CHANNELS 3 Zrotation Yrotation Xrotation
			JOINT LeftLeg
			{
				OFFSET 2.448110 -6.726130 0.000000
				CHANNELS 3 Zrotation Yrotation Xrotation
				JOINT LeftFoot
				{
					OFFSET 2.562200 -7.039590 0.000000
					CHANNELS 3 Zrotation Yrotation Xrotation
					JOINT LeftToeBase
					{
						OFFSET 0.157640 -0.433110 2.322550
						CHANNELS 3 Zrotation Yrotation Xrotation
						End Site
						{
							OFFSET 0.000000 0.000000 0.000000
						}
					}
				}
			}
		}
	}
	JOINT RHipJoint
	{
		OFFSET 0.000000 0.000000 0.000000
		CHANNELS 3 Zrotation Yrotation Xrotation
		JOINT RightUpLeg
		{
			OFFSET -1.305520 -1.794630 0.839290
			CHANNELS 3 Zrotation Yrotation Xrotation
			JOINT RightLeg
			{
				OFFSET -2.542530 -6.985550 0.000000
				CHANNELS 3 Zrotation Yrotation Xrotation
				JOINT RightFoot
				{
					OFFSET -2.568260 -7.056230 0.000000
					CHANNELS 3 Zrotation Yrotation Xrotation
					JOINT RightToeBase
					{
						OFFSET -0.164730 -0.452590 2.363150
						CHANNELS 3 Zrotation Yrotation Xrotation
						End Site
						{
							OFFSET 0.000000 0.000000 0.000000
						}
					}
				}
			}
		}
	}
	JOINT LowerBack
	{
		OFFSET 0.000000 0.000000 0.000000
		CHANNELS 3 Zrotation Yrotation Xrotation
		JOINT Spine
		{
			OFFSET 0.028270 2.035590 -0.193380
			CHANNELS 3 Zrotation Yrotation Xrotation
			JOINT Spine1
			{
				OFFSET 0.056720 2.048850 -0.042750
				CHANNELS 3 Zrotation Yrotation Xrotation
				JOINT Neck
				{
					OFFSET 0.000000 0.000000 0.000000
					CHANNELS 3 Zrotation Yrotation Xrotation
					JOINT Neck1
					{
						OFFSET -0.054170 1.746240 0.172020
						CHANNELS 3 Zrotation Yrotation Xrotation
						JOINT Head
						{
							OFFSET 0.104070 1.761360 -0.123970
							CHANNELS 3 Zrotation Yrotation Xrotation
							End Site
							{
								OFFSET 0.000000 0.000000 0.000000
							}
						}
					}
				}
				JOINT LeftShoulder
				{
					OFFSET 0.000000 0.000000 0.000000
					CHANNELS 3 Zrotation Yrotation Xrotation
					JOINT LeftArm
					{
						OFFSET 3.362410 1.200890 -0.311210
						CHANNELS 3 Zrotation Yrotation Xrotation
						JOINT LeftForeArm
						{
							OFFSET 4.983000 -0.000000 -0.000000
							CHANNELS 3 Zrotation Yrotation Xrotation
							JOINT LeftHand
							{
								OFFSET 3.483560 -0.000000 -0.000000
								CHANNELS 3 Zrotation Yrotation Xrotation
								JOINT LeftFingerBase
								{
									OFFSET 0.000000 0.000000 0.000000
									CHANNELS 3 Zrotation Yrotation Xrotation
									JOINT LeftHandIndex1
									{
										OFFSET 0.715260 -0.000000 -0.000000
										CHANNELS 3 Zrotation Yrotation Xrotation
										End Site
										{
											OFFSET 0.000000 0.000000 0.000000
										}
									}
								}
								JOINT LThumb
								{
									OFFSET 0.000000 0.000000 0.000000
									CHANNELS 3 Zrotation Yrotation Xrotation
									End Site
									{
										OFFSET 0.000000 0.000000 0.000000
									}
								}
							}
						}
					}
				}
				JOINT RightShoulder
				{
					OFFSET 0.000000 0.000000 0.000000
					CHANNELS 3 Zrotation Yrotation Xrotation
					JOINT RightArm
					{
						OFFSET -3.136600 1.374050 -0.404650
						CHANNELS 3 Zrotation Yrotation Xrotation
						JOINT RightForeArm
						{
							OFFSET -5.241900 -0.000000 -0.000000
							CHANNELS 3 Zrotation Yrotation Xrotation
							JOINT RightHand
							{
								OFFSET -3.444170 -0.000000 -0.000000
								CHANNELS 3 Zrotation Yrotation Xrotation
								JOINT RightFingerBase
								{
									OFFSET 0.000000 0.000000 0.000000
									CHANNELS 3 Zrotation Yrotation Xrotation
									JOINT RightHandIndex1
									{
										OFFSET -0.622530 -0.000000 -0.000000
										CHANNELS 3 Zrotation Yrotation Xrotation
										End Site
										{
											OFFSET 0.000000 0.000000 0.000000
										}
									}
								}
								JOINT RThumb
								{
									OFFSET 0.000000 0.000000 0.000000
									CHANNELS 3 Zrotation Yrotation Xrotation
									End Site
									{
										OFFSET 0.000000 0.000000 0.000000
									}
								}
							}
						}
					}
				}
			}
		}
	}
}
MOTION
Frames: 4
Frame Time: 0.008333
-23.287387 16.624625 0.136318 25.425429 -77.691910 -13.967741 -0.653156 20.770050 7.503113 -23.105834 -22.343046 -34.941142 -1.654304 3.663516 18.140472 0.630650 -0.145576 4.435547 12.097477 -0.141484 -12.311038 -4.854888 -17.528509 6.757323 27.117884 11.851082 -19.481780 -10.962400 -0.324110 27.275648 -3.054452 3.597917 -15.493974 -3.823349 -2.936539 -12.294396 -3.281322 -0.516496 -5.200787 2.043334 1.333573 -1.875241 -2.978069 0.693274 5.301886 -2.030558 -0.088272 -8.481111 -0.323784 -0.186588 17.177830 -0.667742 -4.961951 18.155599 3.780498 -2.596727 1.818166 -78.618138 -6.837185 -2.397813 -6.485690 -2.819234 -4.667588 9.432110 3.355673 -0.335187 -0.000000 -0.000000 0.000000 -0.000000 -0.000000 0.000000 0.000000 -0.000000 -0.000000 -2.063180 3.758347 4.953753 68.150575 21.259407 -2.223866 9.895973 27.497100 -18.177840 6.129834 -14.611279 -2.783621 0.000000 -0.000001 0.000001 0.000000 0.000000 -0.000000 0.000000 0.000000 0.000000 
-23.435135 16.614565 0.182174 25.428571 -77.781638 -13.631288 -0.352325 20.319717 8.116989 -22.810064 -22.486114 -35.521190 -2.230408 3.504252 14.904319 1.368722 -0.236503 4.123044 11.790616 0.158670 -12.227048 -4.799166 -17.463085 6.454061 27.300404 11.043422 -19.221751 -11.252566 -0.185602 27.216511 -2.809094 4.042063 -15.482153 -3.875083 -2.749529 -12.217081 -3.397047 -0.512870 -5.725959 2.088586 1.409081 -1.780455 -2.834484 0.681902 5.281042 -2.100405 -0.067878 -8.407676 -0.132377 -0.170678 17.305889 -0.643852 -4.668936 17.837971 3.646294 -2.407649 1.818018 -78.845296 -5.931319 -3.277315 -6.349510 -2.353131 -5.026176 9.855487 3.637735 -0.344261 -0.000000 -0.000000 0.000000 -0.000000 0.000000 0.000000 0.000000 0.000000 0.000000 -2.173851 3.958704 4.958764 68.010273 21.454797 -2.053981 9.882148 27.659680 -18.302823 6.661571 -14.831630 -2.891341 0.000000 -0.000001 0.000001 0.000000 0.000000 0.000000 0.000000 -0.000000 0.000000 
-23.576126 16.601351 0.229348 24.639158 -77.783075 -12.528913 0.038965 19.927810 8.572029 -22.569804 -22.584413 -36.380509 -2.725369 3.648167 12.611947 1.666513 -0.865649 3.281510 10.773270 0.590505 -11.555222 -4.778112 -17.225810 6.224613 27.449534 10.651577 -18.900275 -11.450650 -0.470809 27.194458 -2.562242 4.149343 -15.525085 -4.175378 -2.445120 -12.615975 -3.414710 -0.612110 -6.116352 2.151518 1.387378 -1.776041 -2.829551 0.670026 5.360868 -2.031692 -0.026345 -8.509123 0.094757 -0.149361 17.353437 -0.776499 -4.184046 18.142128 3.714622 -2.052785 1.826382 -79.108408 -5.214644 -3.892042 -6.203419 -1.938114 -5.420430 10.344215 3.915557 -0.349780 -0.000000 -0.000000 0.000000 -0.000000 0.000000 -0.000000 -0.000000 -0.000000 0.000000 -2.201797 4.238392 4.767332 67.931951 21.602462 -1.646327 9.755996 27.882690 -19.430070 5.831387 -15.538531 -2.931057 0.000000 -0.000001 0.000001 0.000000 -0.000000 0.000000 -0.000000 -0.000000 0.000000 
-23.717417 16.586787 0.283149 24.271270 -77.789535 -12.057104 0.226137 19.861366 9.023267 -22.583159 -22.444606 -36.986084 -2.998176 4.334097 10.068957 1.526274 -2.465094 2.995908 10.861922 0.020019 -11.239601 -4.919507 -17.258032 6.015721 27.699875 10.137706 -18.335553 -11.745320 -0.711883 27.083968 -2.129624 4.571018 -15.416245 -4.433492 -2.215081 -12.988375 -3.389670 -0.668841 -6.322297 2.134843 1.372481 -1.748691 -2.853568 0.618170 5.526010 -1.988286 0.020958 -8.691589 0.330362 -0.122192 17.393381 -1.619598 -3.432327 17.658315 3.754319 -1.601281 1.878849 -79.354287 -4.621417 -5.090719 -6.060544 -1.460997 -5.624781 10.946671 3.655811 -0.326668 -0.000000 -0.000000 0.000000 -0.000000 0.000000 -0.000000 0.000000 0.000000 0.000000 -2.242264 4.367970 4.896387 67.817349 22.193231 -1.888542 9.983899 27.979158 -18.051279 6.807388 -14.736461 -2.889276 0.000000 -0.000001 0.000001 0.000000 -0.000000 0.000000 -0.000000 0.000000 0.000000 
